<svg width="14" height="27" viewBox="0 0 14 27" fill="none" xmlns="http://www.w3.org/2000/svg">
<path d="M0.988281 1.59662C0.988281 0.878645 1.57174 0.289883 2.28613 0.361562C3.54809 0.488182 4.78711 0.799042 5.96317 1.28618C7.5404 1.93949 8.97351 2.89707 10.1807 4.10423C11.3878 5.31139 12.3454 6.7445 12.9987 8.32173C13.652 9.89897 13.9883 11.5894 13.9883 13.2966C13.9883 15.0038 13.652 16.6943 12.9987 18.2715C12.3454 19.8487 11.3878 21.2818 10.1807 22.489C8.97351 23.6962 7.5404 24.6537 5.96316 25.3071C4.7871 25.7942 3.54808 26.1051 2.28612 26.2317C1.57174 26.3033 0.988277 25.7146 0.988277 24.9966C0.988277 24.2786 1.57254 23.705 2.2849 23.6155C3.20513 23.4998 4.10772 23.2614 4.96819 22.905C6.22997 22.3823 7.37646 21.6163 8.34219 20.6505C9.30792 19.6848 10.074 18.5383 10.5966 17.2765C11.1193 16.0147 11.3883 14.6624 11.3883 13.2966C11.3883 11.9309 11.1193 10.5785 10.5966 9.31671C10.074 8.05492 9.30792 6.90843 8.34219 5.94271C7.37646 4.97698 6.22998 4.21092 4.96819 3.68827C4.10773 3.33185 3.20514 3.09339 2.28491 2.97776C1.57254 2.88825 0.988281 2.31459 0.988281 1.59662Z" fill="#4DA6FF"/>
</svg>
