<svg width="25" height="49" viewBox="0 0 25 49" fill="none" xmlns="http://www.w3.org/2000/svg">
<path d="M24.9883 47.0966C24.9883 47.7594 24.4507 48.2997 23.7888 48.2666C21.0469 48.1294 18.3457 47.5226 15.8039 46.4697C12.8921 45.2636 10.2463 43.4958 8.01772 41.2672C5.78911 39.0386 4.02128 36.3928 2.81517 33.481C1.60906 30.5692 0.98828 27.4483 0.988281 24.2966C0.988282 21.1449 1.60906 18.024 2.81518 15.1122C4.02129 12.2004 5.78912 9.55465 8.01772 7.32605C10.2463 5.09744 12.8921 3.32961 15.8039 2.1235C18.3457 1.07064 21.0469 0.463815 23.7888 0.326608C24.4507 0.293486 24.9883 0.833874 24.9883 1.49662C24.9883 2.15936 24.4506 2.69314 23.7889 2.72994C21.3623 2.86489 18.9729 3.40858 16.7223 4.34082C14.1017 5.42632 11.7205 7.01736 9.71478 9.0231C7.70904 11.0288 6.11799 13.41 5.03249 16.0306C3.94698 18.6513 3.38828 21.4601 3.38828 24.2966C3.38828 27.1332 3.94698 29.9419 5.03248 32.5626C6.11798 35.1832 7.70903 37.5644 9.71477 39.5701C11.7205 41.5759 14.1017 43.1669 16.7223 44.2524C18.9729 45.1846 21.3623 45.7283 23.7889 45.8633C24.4506 45.9001 24.9883 46.4339 24.9883 47.0966Z" fill="#0DDD60"/>
</svg>
